<mxfile host="65bd71144e">
    <diagram id="uQ3XI5dzIqyW9PwJZxHi" name="Page-1">
        <mxGraphModel dx="955" dy="502" grid="1" gridSize="10" guides="1" tooltips="1" connect="1" arrows="1" fold="1" page="1" pageScale="1" pageWidth="850" pageHeight="1100" math="0" shadow="0">
            <root>
                <mxCell id="0"/>
                <mxCell id="1" parent="0"/>
                <mxCell id="2" value="endpoint: /" style="text;html=1;strokeColor=none;fillColor=none;align=center;verticalAlign=middle;whiteSpace=wrap;rounded=0;" vertex="1" parent="1">
                    <mxGeometry x="200" y="70" width="60" height="30" as="geometry"/>
                </mxCell>
                <mxCell id="3" value="functionality:&lt;br&gt;- Create a space&lt;br&gt;- Enter a space&lt;br&gt;- Log in / Sign up to go to your idea dashboard&lt;br&gt;" style="text;html=1;strokeColor=none;fillColor=none;align=center;verticalAlign=middle;whiteSpace=wrap;rounded=0;" vertex="1" parent="1">
                    <mxGeometry x="200" y="120" width="270" height="80" as="geometry"/>
                </mxCell>
                <mxCell id="5" value="" style="rounded=0;whiteSpace=wrap;html=1;" vertex="1" parent="1">
                    <mxGeometry x="210" y="250" width="230" height="350" as="geometry"/>
                </mxCell>
                <mxCell id="21" value="Space Id" style="html=1;shadow=0;dashed=0;shape=mxgraph.bootstrap.rrect;rSize=5;strokeColor=#CED4DA;html=1;whiteSpace=wrap;fillColor=#FFFFFF;fontColor=#7D868C;align=left;spacing=15;fontSize=14;" vertex="1" parent="1">
                    <mxGeometry x="215" y="360" width="210" height="40" as="geometry"/>
                </mxCell>
                <mxCell id="23" value="Enter" style="html=1;shadow=0;dashed=0;shape=mxgraph.bootstrap.rightButton;strokeColor=#6C757D;gradientColor=inherit;fontColor=inherit;fillColor=#ffffff;rSize=5;perimeter=none;whiteSpace=wrap;resizeHeight=1;fontSize=14;align=left;spacing=15;" vertex="1" parent="21">
                    <mxGeometry x="1" width="80" height="40" relative="1" as="geometry">
                        <mxPoint x="-80" as="offset"/>
                    </mxGeometry>
                </mxCell>
                <mxCell id="24" value="Space Name" style="html=1;shadow=0;dashed=0;shape=mxgraph.bootstrap.rrect;rSize=5;strokeColor=#CED4DA;html=1;whiteSpace=wrap;fillColor=#FFFFFF;fontColor=#7D868C;align=left;spacing=15;fontSize=14;" vertex="1" parent="1">
                    <mxGeometry x="215" y="440" width="210" height="40" as="geometry"/>
                </mxCell>
                <mxCell id="25" value="Create" style="html=1;shadow=0;dashed=0;shape=mxgraph.bootstrap.rightButton;strokeColor=#6C757D;gradientColor=inherit;fontColor=inherit;fillColor=#ffffff;rSize=5;perimeter=none;whiteSpace=wrap;resizeHeight=1;fontSize=14;align=left;spacing=15;" vertex="1" parent="24">
                    <mxGeometry x="1" width="80" height="40" relative="1" as="geometry">
                        <mxPoint x="-80" as="offset"/>
                    </mxGeometry>
                </mxCell>
                <mxCell id="26" value="Enter a space:" style="fillColor=none;strokeColor=none;align=left;fontSize=14;" vertex="1" parent="1">
                    <mxGeometry x="215" y="330" width="150" height="40" as="geometry"/>
                </mxCell>
                <mxCell id="29" value="Create a space:" style="fillColor=none;strokeColor=none;align=left;fontSize=14;" vertex="1" parent="1">
                    <mxGeometry x="215" y="410" width="150" height="40" as="geometry"/>
                </mxCell>
                <mxCell id="31" value="" style="html=1;shadow=0;dashed=0;fillColor=#F8F9FA;strokeColor=none;fontSize=16;fontColor=#7C7C7D;align=right;spacing=15;" vertex="1" parent="1">
                    <mxGeometry x="210" y="250" width="230" height="60" as="geometry"/>
                </mxCell>
                <mxCell id="32" value="Elevator Pitch" style="strokeColor=none;html=1;whiteSpace=wrap;fillColor=none;fontColor=#181819;align=left;fontSize=16;spacing=10;" vertex="1" parent="31">
                    <mxGeometry width="130" height="40" relative="1" as="geometry">
                        <mxPoint x="10" y="10" as="offset"/>
                    </mxGeometry>
                </mxCell>
                <mxCell id="35" value="log in" style="strokeColor=none;html=1;whiteSpace=wrap;fillColor=none;fontColor=#7C7C7D;align=left;fontSize=14;spacing=10;" vertex="1" parent="31">
                    <mxGeometry width="60" height="40" relative="1" as="geometry">
                        <mxPoint x="170" y="10" as="offset"/>
                    </mxGeometry>
                </mxCell>
                <mxCell id="36" value="endpoint: POST /api/space" style="text;html=1;strokeColor=none;fillColor=none;align=center;verticalAlign=middle;whiteSpace=wrap;rounded=0;" vertex="1" parent="1">
                    <mxGeometry x="470" y="445" width="190" height="30" as="geometry"/>
                </mxCell>
                <mxCell id="37" value="links to /space/:id" style="text;html=1;strokeColor=none;fillColor=none;align=center;verticalAlign=middle;whiteSpace=wrap;rounded=0;" vertex="1" parent="1">
                    <mxGeometry x="480" y="370" width="190" height="30" as="geometry"/>
                </mxCell>
            </root>
        </mxGraphModel>
    </diagram>
</mxfile>